<?xml version="1.0" standalone="no"?>
<!DOCTYPE svg PUBLIC "-//W3C//DTD SVG 20010904//EN"
 "http://www.w3.org/TR/2001/REC-SVG-20010904/DTD/svg10.dtd">
<svg version="1.0" xmlns="http://www.w3.org/2000/svg"
 width="700.000000pt" height="700.000000pt" viewBox="0 0 700.000000 700.000000"
 preserveAspectRatio="xMidYMid meet">
<metadata>
Created by potrace 1.14, written by Peter Selinger 2001-2017
</metadata>
<g transform="translate(0.000000,700.000000) scale(0.100000,-0.100000)"
fill="#000000" stroke="none">
<path d="M3217 6564 c-1 -1 -47 -5 -102 -8 -55 -4 -107 -9 -115 -11 -8 -2 -33
-6 -55 -9 -32 -5 -128 -24 -155 -31 -650 -172 -1157 -654 -1345 -1280 -51
-169 -38 -151 -165 -229 -242 -148 -294 -245 -285 -536 20 -697 20 -690 49
-752 31 -65 73 -108 146 -146 l55 -28 -2 -110 c-1 -60 -5 -197 -10 -304 -4
-107 -8 -382 -7 -610 0 -374 2 -421 19 -473 35 -112 99 -160 430 -325 99 -49
190 -92 202 -96 13 -4 22 -10 21 -14 -4 -16 14 -117 28 -155 146 -393 633
-856 1106 -1051 255 -106 480 -128 723 -71 420 98 943 488 1209 903 79 123
136 267 138 352 1 23 8 31 32 41 63 25 369 180 448 226 90 53 152 117 168 172
20 68 24 146 24 531 1 346 -4 543 -20 871 l-5 107 63 35 c117 66 164 141 172
277 8 121 18 466 20 660 1 184 -6 217 -72 318 -42 64 -85 100 -221 184 -58 35
-108 71 -112 79 -4 8 -20 59 -35 113 -182 647 -714 1156 -1374 1315 -92 22
-117 27 -200 36 -30 3 -73 9 -95 12 -37 5 -672 12 -678 7z"/>
</g>
</svg>
